<!--?xml version="1.0" standalone="no"?-->
              <svg id="sw-js-blob-svg" viewBox="0 0 100 100" xmlns="http://www.w3.org/2000/svg" version="1.1">
                    <defs>
                        <linearGradient id="sw-gradient" x1="0" x2="1" y1="1" y2="0">
                            <stop id="stop1" stop-color="rgba(66, 31, 170, 1)" offset="0%"></stop>
                            <stop id="stop2" stop-color="rgba(88, 40, 232, 1)" offset="100%"></stop>
                        </linearGradient>
                    </defs>
                <path fill="url(#sw-gradient)" d="M19.2,-33.7C25.8,-29.5,32.8,-26.2,35.9,-20.7C39.1,-15.3,38.5,-7.6,38.6,0C38.7,7.7,39.4,15.5,37.1,22.3C34.7,29,29.1,34.9,22.4,38.9C15.7,43,7.8,45.3,-0.2,45.7C-8.2,46,-16.4,44.4,-23.4,40.5C-30.5,36.6,-36.2,30.4,-39.8,23.3C-43.3,16.2,-44.5,8.1,-44,0.3C-43.6,-7.6,-41.5,-15.2,-37.9,-22.1C-34.3,-29.1,-29.2,-35.4,-22.6,-39.6C-16.1,-43.9,-8,-46,-0.9,-44.5C6.3,-43,12.6,-37.9,19.2,-33.7Z" width="100%" height="100%" transform="translate(50 50)" stroke-width="0" style="transition: all 0.3s ease 0s;" id="blob-path"></path>
              </svg>
